<svg width="211" height="230" viewBox="0 0 211 230" fill="none" xmlns="http://www.w3.org/2000/svg">
<path d="M48.0544 198.605C58.9662 189.987 85.3019 171.263 101.444 170.93C120.607 170.536 131.698 165.561 171.741 198.605C161.211 210.996 132.929 231.488 101.444 227.518C78.1717 224.584 81.5536 220.874 48.0544 212.235C29.0061 207.323 10.9781 215.127 4.45266 219.257C10.3849 208.793 18.6899 184.478 4.45266 170.93C-9.78463 157.382 23.4357 180.981 41.8255 194.474" stroke="white" stroke-width="2" stroke-linecap="round" stroke-linejoin="round"/>
<path d="M180.136 151.589C180.136 155.448 176.731 158.763 172.292 158.763C167.854 158.763 164.449 155.448 164.449 151.589C164.449 147.73 167.854 144.415 172.292 144.415C176.731 144.415 180.136 147.73 180.136 151.589Z" stroke="white" stroke-opacity="0.71" stroke-width="3"/>
<path d="M201.491 95.4145C201.491 102.467 195.298 108.371 187.419 108.371C179.541 108.371 173.347 102.467 173.347 95.4145C173.347 88.3617 179.541 82.4578 187.419 82.4578C195.298 82.4578 201.491 88.3617 201.491 95.4145Z" stroke="white" stroke-opacity="0.71" stroke-width="3"/>
<path d="M209.5 20.6525C209.5 31.1271 200.319 39.805 188.754 39.805C177.19 39.805 168.009 31.1271 168.009 20.6525C168.009 10.1779 177.19 1.5 188.754 1.5C200.319 1.5 209.5 10.1779 209.5 20.6525Z" stroke="white" stroke-opacity="0.71" stroke-width="3"/>
<ellipse cx="146.042" cy="194.133" rx="3.55932" ry="3.3044" fill="#F4FAFB"/>
</svg>
