<svg width="323" height="287" viewBox="0 0 323 287" fill="none" xmlns="http://www.w3.org/2000/svg">
<g clip-path="url(#clip0)">
<path d="M137.693 194.616C137.693 194.616 180.589 188.423 195.602 178.617C210.615 168.811 322.142 164.166 322.142 194.616C322.142 225.067 193.886 238.486 193.886 238.486L126.541 233.841L137.693 194.616Z" fill="#FBBEBE"/>
<path opacity="0.1" d="M137.693 194.616C137.693 194.616 180.589 188.423 195.602 178.617C210.615 168.811 322.142 164.166 322.142 194.616C322.142 225.067 193.886 238.486 193.886 238.486L126.541 233.841L137.693 194.616Z" fill="black"/>
<path d="M150.133 188.939L141.125 220.422L0 222.486V176.036C0 176.036 54.0478 161.069 96.9429 193.068C96.9429 193.068 147.559 185.842 150.133 188.939Z" fill="#6C63FF"/>
<path opacity="0.1" d="M150.133 188.888L141.125 220.371L0 222.435V175.985C0 175.985 54.0478 161.018 96.9429 193.017C96.9429 193.017 147.559 185.791 150.133 188.888Z" fill="black"/>
<path d="M311.482 175.778C311.482 177.537 308.203 178.843 307.881 180.54C307.561 182.223 309.509 184.782 308.893 186.39C308.256 188.033 307.503 189.608 306.643 191.097C305.835 192.488 303.341 192.285 302.318 193.59C301.317 194.774 300.256 195.884 299.142 196.913C298.057 197.999 296.587 198.227 295.353 199.226C294.179 200.177 294.321 203.663 293.023 204.529C291.783 205.356 289.884 204.691 288.539 205.434C287.248 206.148 286.567 208.729 285.186 209.36C283.855 209.969 282.207 209.707 280.799 210.234C279.437 210.744 277.912 210.661 276.485 211.091C275.099 211.508 274.04 214.008 272.598 214.345C271.193 214.674 269.546 213.798 268.093 214.046C266.675 214.289 265.025 212.129 263.565 212.292C262.137 212.453 260.791 213.453 259.328 213.534C257.893 213.613 256.475 214.373 255.012 214.373C253.549 214.373 252.039 216.024 250.604 215.945C249.142 215.864 247.817 213.361 246.389 213.201C244.929 213.038 243.188 215.652 241.769 215.409C240.316 215.161 239.166 212.601 237.761 212.273C236.318 211.936 234.455 213.765 233.069 213.348C231.641 212.918 230.794 209.94 229.431 209.43C228.024 208.903 226.279 209.617 224.947 209.008C223.567 208.377 221.884 208.478 220.593 207.765C219.248 207.021 218.282 205.262 217.042 204.435C215.744 203.569 215.145 201.423 213.972 200.472C212.738 199.472 210.857 199.6 209.772 198.514C208.626 197.367 206.479 197.307 205.512 196.074C204.49 194.769 204.076 192.578 203.269 191.187C202.418 189.722 204.087 186.624 203.493 185.075C202.877 183.468 200.301 182.815 199.982 181.133C199.652 179.375 199.483 177.58 199.477 175.778C199.477 174.019 201.68 172.675 202.003 170.978C202.322 169.295 200.701 166.878 201.317 165.27C201.911 163.722 201.835 161.341 202.686 159.875C203.493 158.484 205.508 157.939 206.531 156.634C207.498 155.401 209.229 155.057 210.375 153.91C211.46 152.825 211.322 149.55 212.556 148.55C213.729 147.6 215.367 147.166 216.665 146.3C217.905 145.473 219.661 145.613 221.006 144.869C222.297 144.156 224.32 145.562 225.701 144.931C227.032 144.322 228.112 142.991 229.52 142.464C230.882 141.954 231.522 138.063 232.95 137.633C234.336 137.216 236.042 137.908 237.484 137.571C238.889 137.243 240.779 140.313 242.232 140.064C243.651 139.821 244.712 135.723 246.171 135.559C247.6 135.399 249.21 137.522 250.673 137.441C252.108 137.362 253.548 138.606 255.012 138.606C256.475 138.606 257.932 136.899 259.367 136.978C260.83 137.059 262.12 139.315 263.548 139.475C265.008 139.638 266.799 136.207 268.218 136.45C269.671 136.699 270.794 139.351 272.199 139.679C273.641 140.017 275.448 138.37 276.834 138.787C278.262 139.217 279.121 142.036 280.483 142.546C281.891 143.073 282.758 145.062 284.09 145.671C285.471 146.302 288.035 143.349 289.327 144.063C290.672 144.806 291.834 146.093 293.075 146.92C294.373 147.785 296.436 147.35 297.609 148.301C298.844 149.3 299.147 151.984 300.232 153.07C301.378 154.217 303.268 154.562 304.235 155.796C305.258 157.1 305.4 159.438 306.207 160.829C307.058 162.295 307.031 164.325 307.625 165.873C308.241 167.48 309.886 168.696 310.205 170.379C310.527 172.075 311.482 174.02 311.482 175.778Z" fill="#3F3D56"/>
<path d="M156.996 208.035C156.996 208.035 205.468 178.101 236.781 189.455C268.095 200.809 311.848 181.197 316.995 187.907C322.142 194.616 329.435 266.872 267.666 271.001C205.897 275.129 153.136 258.614 153.136 258.614L156.996 208.035Z" fill="#FBBEBE"/>
<path d="M145.581 204.847C145.581 204.847 164.717 203.39 163.859 211.648C163.001 219.906 162.143 283.903 156.996 285.452C151.849 287 111.098 287 94.3692 287H0V188.055C0 188.055 66.9163 183.262 100.375 203.39C100.375 203.39 140.6 202.691 145.581 204.847Z" fill="#6C63FF"/>
<path d="M235.229 50.0832C233.4 50.2075 231.637 50.9421 230.136 52.2048C228.635 53.4674 227.456 55.2082 226.731 57.2318C224.607 63.4116 227.342 70.6708 231.449 75.1771C235.556 79.6835 240.832 82.2594 245.626 85.6451C252.064 90.1927 257.849 96.5055 261.071 104.609C264.292 112.712 264.635 122.75 260.848 130.492C257.333 137.677 250.943 141.978 244.847 145.944" stroke="#3F3D56" stroke-miterlimit="10"/>
<path d="M252.386 12.407C250.558 12.5313 248.794 13.266 247.293 14.5286C245.792 15.7913 244.613 17.532 243.889 19.5557C241.764 25.7355 244.5 32.9946 248.607 37.501C252.714 42.0074 257.989 44.5832 262.783 47.9689C269.221 52.5165 275.006 58.8294 278.228 66.9328C281.449 75.0363 281.792 85.0742 278.005 92.8157C274.491 100.001 268.1 104.302 262.004 108.268" stroke="#3F3D56" stroke-miterlimit="10"/>
<path d="M308.801 21.0723C307.291 19.8238 305.523 19.1057 303.694 18.9986C301.865 18.8915 300.047 19.3996 298.444 20.4659C293.62 23.7874 292.09 31.5424 293.044 38.1308C293.999 44.7192 296.86 50.6418 298.928 56.8497C301.705 65.1878 303.068 74.4408 301.492 83.2212C299.916 92.0017 295.08 100.191 288.147 103.523C281.712 106.616 274.47 105.31 267.633 103.956" stroke="#3F3D56" stroke-miterlimit="10"/>
<path d="M259.086 98.9587C264.772 98.9587 269.381 96.265 269.381 92.9423C269.381 89.6195 264.772 86.9259 259.086 86.9259C253.401 86.9259 248.792 89.6195 248.792 92.9423C248.792 96.265 253.401 98.9587 259.086 98.9587Z" fill="#57B894"/>
<path d="M257.799 97.9265C263.485 97.9265 268.094 95.2329 268.094 91.9101C268.094 88.5874 263.485 85.8937 257.799 85.8937C252.114 85.8937 247.504 88.5874 247.504 91.9101C247.504 95.2329 252.114 97.9265 257.799 97.9265Z" stroke="#3F3D56" stroke-miterlimit="10"/>
<path d="M281.392 93.7976C287.078 93.7976 291.687 91.104 291.687 87.7813C291.687 84.4585 287.078 81.7649 281.392 81.7649C275.706 81.7649 271.097 84.4585 271.097 87.7813C271.097 91.104 275.706 93.7976 281.392 93.7976Z" fill="#57B894"/>
<path d="M280.105 92.7653C285.79 92.7653 290.399 90.0717 290.399 86.7489C290.399 83.4262 285.79 80.7325 280.105 80.7325C274.419 80.7325 269.81 83.4262 269.81 86.7489C269.81 90.0717 274.419 92.7653 280.105 92.7653Z" stroke="#3F3D56" stroke-miterlimit="10"/>
<path d="M284.824 116.506C290.509 116.506 295.118 113.813 295.118 110.49C295.118 107.167 290.509 104.474 284.824 104.474C279.138 104.474 274.529 107.167 274.529 110.49C274.529 113.813 279.138 116.506 284.824 116.506Z" fill="#57B894"/>
<path d="M283.536 115.474C289.221 115.474 293.831 112.781 293.831 109.458C293.831 106.135 289.221 103.442 283.536 103.442C277.85 103.442 273.241 106.135 273.241 109.458C273.241 112.781 277.85 115.474 283.536 115.474Z" stroke="#3F3D56" stroke-miterlimit="10"/>
<path d="M282.679 59.7343C288.364 59.7343 292.973 57.0407 292.973 53.7179C292.973 50.3952 288.364 47.7015 282.679 47.7015C276.993 47.7015 272.384 50.3952 272.384 53.7179C272.384 57.0407 276.993 59.7343 282.679 59.7343Z" fill="#57B894"/>
<path d="M281.392 58.7021C287.078 58.7021 291.687 56.0084 291.687 52.6857C291.687 49.3629 287.078 46.6693 281.392 46.6693C275.706 46.6693 271.097 49.3629 271.097 52.6857C271.097 56.0084 275.706 58.7021 281.392 58.7021Z" stroke="#3F3D56" stroke-miterlimit="10"/>
<path d="M256.941 56.1215C262.627 56.1215 267.236 53.4279 267.236 50.1051C267.236 46.7824 262.627 44.0887 256.941 44.0887C251.256 44.0887 246.646 46.7824 246.646 50.1051C246.646 53.4279 251.256 56.1215 256.941 56.1215Z" fill="#57B894"/>
<path d="M255.655 55.0893C261.341 55.0893 265.95 52.3957 265.95 49.0729C265.95 45.7501 261.341 43.0565 255.655 43.0565C249.969 43.0565 245.36 45.7501 245.36 49.0729C245.36 52.3957 249.969 55.0893 255.655 55.0893Z" stroke="#3F3D56" stroke-miterlimit="10"/>
<path d="M268.524 43.2187C274.209 43.2187 278.818 40.525 278.818 37.2023C278.818 33.8795 274.209 31.1859 268.524 31.1859C262.838 31.1859 258.229 33.8795 258.229 37.2023C258.229 40.525 262.838 43.2187 268.524 43.2187Z" fill="#57B894"/>
<path d="M267.236 42.1864C272.921 42.1864 277.531 39.4928 277.531 36.1701C277.531 32.8473 272.921 30.1537 267.236 30.1537C261.55 30.1537 256.941 32.8473 256.941 36.1701C256.941 39.4928 261.55 42.1864 267.236 42.1864Z" stroke="#3F3D56" stroke-miterlimit="10"/>
<path d="M293.831 45.7993C299.517 45.7993 304.126 43.1057 304.126 39.7829C304.126 36.4602 299.517 33.7665 293.831 33.7665C288.146 33.7665 283.537 36.4602 283.537 39.7829C283.537 43.1057 288.146 45.7993 293.831 45.7993Z" fill="#57B894"/>
<path d="M292.544 44.7671C298.23 44.7671 302.839 42.0735 302.839 38.7508C302.839 35.428 298.23 32.7344 292.544 32.7344C286.859 32.7344 282.25 35.428 282.25 38.7508C282.25 42.0735 286.859 44.7671 292.544 44.7671Z" stroke="#3F3D56" stroke-miterlimit="10"/>
<path d="M312.705 62.8309C318.391 62.8309 323 60.1373 323 56.8145C323 53.4918 318.391 50.7982 312.705 50.7982C307.02 50.7982 302.411 53.4918 302.411 56.8145C302.411 60.1373 307.02 62.8309 312.705 62.8309Z" fill="#57B894"/>
<path d="M311.418 61.7987C317.104 61.7987 321.713 59.1051 321.713 55.7823C321.713 52.4596 317.104 49.7659 311.418 49.7659C305.732 49.7659 301.123 52.4596 301.123 55.7823C301.123 59.1051 305.732 61.7987 311.418 61.7987Z" stroke="#3F3D56" stroke-miterlimit="10"/>
<path d="M246.218 32.8965C251.904 32.8965 256.513 30.2029 256.513 26.8801C256.513 23.5574 251.904 20.8638 246.218 20.8638C240.532 20.8638 235.923 23.5574 235.923 26.8801C235.923 30.2029 240.532 32.8965 246.218 32.8965Z" fill="#57B894"/>
<path d="M244.931 31.8643C250.616 31.8643 255.226 29.1707 255.226 25.8479C255.226 22.5252 250.616 19.8315 244.931 19.8315C239.245 19.8315 234.636 22.5252 234.636 25.8479C234.636 29.1707 239.245 31.8643 244.931 31.8643Z" stroke="#3F3D56" stroke-miterlimit="10"/>
<path d="M252.652 13.2843C258.338 13.2843 262.947 10.5907 262.947 7.26791C262.947 3.94515 258.338 1.25153 252.652 1.25153C246.967 1.25153 242.358 3.94515 242.358 7.26791C242.358 10.5907 246.967 13.2843 252.652 13.2843Z" fill="#57B894"/>
<path d="M251.365 12.2521C257.05 12.2521 261.66 9.55843 261.66 6.23568C261.66 2.91292 257.05 0.219299 251.365 0.219299C245.679 0.219299 241.07 2.91292 241.07 6.23568C241.07 9.55843 245.679 12.2521 251.365 12.2521Z" stroke="#3F3D56" stroke-miterlimit="10"/>
<path d="M312.276 27.7354C317.961 27.7354 322.571 25.0418 322.571 21.719C322.571 18.3963 317.961 15.7026 312.276 15.7026C306.59 15.7026 301.981 18.3963 301.981 21.719C301.981 25.0418 306.59 27.7354 312.276 27.7354Z" fill="#57B894"/>
<path d="M310.989 26.7032C316.675 26.7032 321.284 24.0095 321.284 20.6868C321.284 17.364 316.675 14.6704 310.989 14.6704C305.303 14.6704 300.694 17.364 300.694 20.6868C300.694 24.0095 305.303 26.7032 310.989 26.7032Z" stroke="#3F3D56" stroke-miterlimit="10"/>
<path d="M217.478 75.2176C223.164 75.2176 227.773 72.524 227.773 69.2013C227.773 65.8785 223.164 63.1849 217.478 63.1849C211.793 63.1849 207.184 65.8785 207.184 69.2013C207.184 72.524 211.793 75.2176 217.478 75.2176Z" fill="#57B894"/>
<path d="M216.191 74.1854C221.876 74.1854 226.486 71.4918 226.486 68.169C226.486 64.8463 221.876 62.1526 216.191 62.1526C210.505 62.1526 205.896 64.8463 205.896 68.169C205.896 71.4918 210.505 74.1854 216.191 74.1854Z" stroke="#3F3D56" stroke-miterlimit="10"/>
<path d="M253.081 72.1209C258.767 72.1209 263.376 69.4273 263.376 66.1045C263.376 62.7818 258.767 60.0881 253.081 60.0881C247.396 60.0881 242.786 62.7818 242.786 66.1045C242.786 69.4273 247.396 72.1209 253.081 72.1209Z" fill="#57B894"/>
<path d="M251.794 71.0887C257.479 71.0887 262.088 68.395 262.088 65.0723C262.088 61.7495 257.479 59.0559 251.794 59.0559C246.108 59.0559 241.499 61.7495 241.499 65.0723C241.499 68.395 246.108 71.0887 251.794 71.0887Z" stroke="#3F3D56" stroke-miterlimit="10"/>
<path d="M299.837 76.7659C305.523 76.7659 310.132 74.0723 310.132 70.7495C310.132 67.4268 305.523 64.7332 299.837 64.7332C294.151 64.7332 289.542 67.4268 289.542 70.7495C289.542 74.0723 294.151 76.7659 299.837 76.7659Z" fill="#57B894"/>
<path d="M298.55 75.7337C304.235 75.7337 308.845 73.0401 308.845 69.7173C308.845 66.3946 304.235 63.7009 298.55 63.7009C292.864 63.7009 288.255 66.3946 288.255 69.7173C288.255 73.0401 292.864 75.7337 298.55 75.7337Z" stroke="#3F3D56" stroke-miterlimit="10"/>
<path d="M274.958 78.8304C280.643 78.8304 285.253 76.1367 285.253 72.814C285.253 69.4912 280.643 66.7976 274.958 66.7976C269.272 66.7976 264.663 69.4912 264.663 72.814C264.663 76.1367 269.272 78.8304 274.958 78.8304Z" fill="#57B894"/>
<path d="M273.67 77.7981C279.356 77.7981 283.965 75.1045 283.965 71.7818C283.965 68.459 279.356 65.7654 273.67 65.7654C267.985 65.7654 263.375 68.459 263.375 71.7818C263.375 75.1045 267.985 77.7981 273.67 77.7981Z" stroke="#3F3D56" stroke-miterlimit="10"/>
<path d="M276.673 27.2193C282.359 27.2193 286.968 24.5257 286.968 21.2029C286.968 17.8801 282.359 15.1865 276.673 15.1865C270.987 15.1865 266.378 17.8801 266.378 21.2029C266.378 24.5257 270.987 27.2193 276.673 27.2193Z" fill="#57B894"/>
<path d="M275.386 26.1871C281.072 26.1871 285.681 23.4934 285.681 20.1707C285.681 16.8479 281.072 14.1543 275.386 14.1543C269.701 14.1543 265.092 16.8479 265.092 20.1707C265.092 23.4934 269.701 26.1871 275.386 26.1871Z" stroke="#3F3D56" stroke-miterlimit="10"/>
<path d="M232.492 59.2182C238.178 59.2182 242.787 56.5246 242.787 53.2018C242.787 49.879 238.178 47.1854 232.492 47.1854C226.806 47.1854 222.197 49.879 222.197 53.2018C222.197 56.5246 226.806 59.2182 232.492 59.2182Z" fill="#57B894"/>
<path d="M231.205 58.186C236.89 58.186 241.5 55.4923 241.5 52.1696C241.5 48.8468 236.89 46.1532 231.205 46.1532C225.519 46.1532 220.91 48.8468 220.91 52.1696C220.91 55.4923 225.519 58.186 231.205 58.186Z" stroke="#3F3D56" stroke-miterlimit="10"/>
<path d="M238.496 82.4432C244.182 82.4432 248.791 79.7495 248.791 76.4268C248.791 73.104 244.182 70.4104 238.496 70.4104C232.811 70.4104 228.201 73.104 228.201 76.4268C228.201 79.7495 232.811 82.4432 238.496 82.4432Z" fill="#57B894"/>
<path d="M237.21 81.4109C242.895 81.4109 247.504 78.7173 247.504 75.3946C247.504 72.0718 242.895 69.3782 237.21 69.3782C231.524 69.3782 226.915 72.0718 226.915 75.3946C226.915 78.7173 231.524 81.4109 237.21 81.4109Z" stroke="#3F3D56" stroke-miterlimit="10"/>
<g opacity="0.3">
<path opacity="0.3" d="M238.737 117.507C240.19 114.378 240.455 111.228 239.329 110.471C238.203 109.714 236.112 111.636 234.659 114.765C233.206 117.893 232.94 121.043 234.066 121.8C235.192 122.557 237.283 120.635 238.737 117.507Z" fill="#57B894"/>
<path opacity="0.3" d="M238.058 117.98C239.511 114.851 239.776 111.701 238.65 110.944C237.524 110.187 235.433 112.109 233.98 115.237C232.527 118.366 232.261 121.516 233.387 122.273C234.514 123.03 236.604 121.108 238.058 117.98Z" stroke="#3F3D56" stroke-miterlimit="10"/>
</g>
<g opacity="0.3">
<path opacity="0.3" d="M292.397 132.504C293.258 131.348 292.156 128.473 289.936 126.083C287.717 123.693 285.22 122.693 284.36 123.849C283.499 125.006 284.601 127.881 286.821 130.271C289.04 132.661 291.537 133.661 292.397 132.504Z" fill="#57B894"/>
<path opacity="0.3" d="M292.162 131.604C293.022 130.448 291.92 127.572 289.701 125.182C287.481 122.792 284.984 121.792 284.124 122.949C283.264 124.105 284.366 126.98 286.585 129.37C288.805 131.761 291.302 132.761 292.162 131.604Z" stroke="#3F3D56" stroke-miterlimit="10"/>
</g>
<g opacity="0.3">
<path opacity="0.3" d="M244.355 99.9893C245.215 98.8328 244.114 95.9577 241.894 93.5676C239.674 91.1775 237.178 90.1775 236.317 91.334C235.457 92.4905 236.559 95.3657 238.779 97.7557C240.998 100.146 243.495 101.146 244.355 99.9893Z" fill="#57B894"/>
<path opacity="0.3" d="M244.12 99.089C244.98 97.9325 243.878 95.0574 241.658 92.6673C239.439 90.2772 236.942 89.2772 236.082 90.4337C235.222 91.5902 236.323 94.4653 238.543 96.8554C240.763 99.2455 243.259 100.246 244.12 99.089Z" stroke="#3F3D56" stroke-miterlimit="10"/>
</g>
</g>
<defs>
<clipPath id="clip0">
<rect width="323" height="287" fill="white"/>
</clipPath>
</defs>
</svg>
