<svg width="302" height="279" viewBox="0 0 302 279" fill="none" xmlns="http://www.w3.org/2000/svg">
<g clip-path="url(#clip0)">
<path d="M211.647 122.168C229.796 122.168 244.508 109.595 244.508 94.085C244.508 78.575 229.796 66.0017 211.647 66.0017C193.497 66.0017 178.785 78.575 178.785 94.085C178.785 109.595 193.497 122.168 211.647 122.168Z" fill="#FF6584"/>
<path d="M301.789 115.024C301.861 115.013 301.916 114.969 302 114.98C301.963 114.859 301.915 114.74 301.856 114.625C301.751 114.747 301.645 114.871 301.551 114.98L301.789 115.024Z" fill="white"/>
<path d="M81.3784 160.553C81.5703 166.68 82.7713 172.753 84.9458 178.594C84.9955 178.73 85.0476 178.863 85.0997 178.999H98.413C98.3988 178.877 98.3846 178.742 98.3704 178.594C97.4827 169.873 92.3647 116.793 98.484 107.716C97.949 108.452 80.3463 132.842 81.3784 160.553Z" fill="#E6E6E6"/>
<path d="M82.3773 178.594C82.4886 178.73 82.6046 178.865 82.7229 178.999H92.7103C92.6345 178.883 92.5469 178.748 92.4452 178.594C90.7952 176.049 85.9116 168.441 81.3784 160.553C76.5066 152.076 72.0372 143.278 72.4136 140.094C72.2976 140.812 68.9267 162.705 82.3773 178.594Z" fill="#E6E6E6"/>
<path d="M186.16 180.053C185.993 185.395 184.946 190.69 183.05 195.782C183.007 195.9 182.961 196.016 182.916 196.134H171.309C171.321 196.029 171.334 195.91 171.346 195.782C172.12 188.178 176.582 141.903 171.247 133.989C171.713 134.631 187.06 155.894 186.16 180.053Z" fill="#E6E6E6"/>
<path d="M185.289 195.782C185.192 195.9 185.091 196.018 184.988 196.134H176.281C176.347 196.034 176.423 195.916 176.512 195.782C177.95 193.563 182.208 186.93 186.16 180.053C190.407 172.663 194.304 164.993 193.976 162.217C194.077 162.843 197.016 181.93 185.289 195.782Z" fill="#E6E6E6"/>
<path d="M53.4507 22.7948L58.8634 19.0951C54.6585 18.6987 52.9308 20.6585 52.2237 22.2097C48.9387 21.044 45.3625 22.5717 45.3625 22.5717L56.1924 25.9316C55.646 24.6845 54.695 23.5964 53.4507 22.7948Z" fill="#3F3D56"/>
<path d="M216.477 3.75143L221.89 0.0518117C217.685 -0.344644 215.957 1.61515 215.25 3.16634C211.965 2.00062 208.389 3.52835 208.389 3.52835L219.219 6.88825C218.672 5.64116 217.721 4.55303 216.477 3.75143Z" fill="#3F3D56"/>
<path d="M296.115 150.054C296.115 153.119 295.991 156.16 295.741 159.175C293.813 182.965 284.16 205.823 267.868 225.183C265.739 227.722 263.503 230.19 261.162 232.587C255.093 238.807 248.356 244.527 241.037 249.671L208.957 233.584L189.777 195.327C189.777 195.327 218.395 145.81 296.065 146.708C296.097 147.819 296.114 148.935 296.115 150.054Z" fill="#3F3D56"/>
<path d="M295.741 159.175C294.265 176.952 288.493 194.275 278.79 210.05C269.087 225.825 255.664 239.71 239.366 250.83L209.564 235.886L192.554 201.957C192.554 201.957 220.117 154.266 295.741 159.175Z" fill="#6C63FF"/>
<path d="M267.868 225.183C265.739 227.722 263.503 230.19 261.162 232.587C245.468 248.7 225.416 261.302 202.741 269.301C198.15 270.919 193.451 272.346 188.643 273.581C153.93 281.47 117.154 279.475 83.8877 267.897C50.9873 255.348 24.4004 233.185 8.90237 205.39C6.81958 201.648 4.94661 197.812 3.28345 193.88C32.2899 175.721 89.4465 149.718 151.741 174.985C168.972 181.974 184.359 188.345 197.9 194.097C232.262 208.653 255.131 219.147 267.868 225.183Z" fill="#3F3D56"/>
<path d="M261.161 232.587C244.939 249.202 224.089 262.063 200.527 269.988C176.966 277.913 151.451 280.647 126.329 277.939C101.208 275.23 77.2867 267.166 56.7669 254.489C36.2471 241.811 19.7874 224.927 8.90234 205.39C33.1276 189.018 89.0021 159.598 150.32 184.466C166.089 190.862 180.167 196.692 192.554 201.957C228.665 217.252 250.909 227.647 261.161 232.587Z" fill="#6C63FF"/>
<path d="M218.404 262.85C213.331 265.253 208.102 267.407 202.742 269.301C184.5 275.725 164.958 279.021 145.229 279C121.883 278.992 98.8565 274.359 77.9588 265.465C57.0612 256.57 38.8609 243.657 24.7874 227.738C60.8244 224.491 160.438 220.112 218.404 262.85Z" fill="#3F3D56"/>
<path d="M202.741 269.301C174.456 279.241 143.306 281.608 113.411 276.091C83.5168 270.574 56.2864 257.431 35.3215 238.402C48.4292 236.756 151.338 225.456 202.741 269.301Z" fill="#6C63FF"/>
<path d="M270.807 78.5482V78.5521C163.066 10.4758 39.6258 58.3915 38.6724 58.7593V58.7554C52.6637 46.8 69.2774 37.3208 87.5619 30.8606C105.846 24.4005 125.443 21.0863 145.228 21.1079C197.608 21.1079 243.754 43.9187 270.807 78.5482Z" fill="#E6E6E6"/>
<path d="M47.314 152.554C65.5402 149.745 74.8799 121.705 68.1749 89.924C61.4698 58.1429 41.259 34.6558 23.0328 37.4641C4.80654 40.2724 -4.53322 68.3126 2.17184 100.094C8.8769 131.875 29.0877 155.362 47.314 152.554Z" fill="#3F3D56"/>
<path d="M51.9979 189.67C50.9174 119.863 23.5867 54.3532 23.3109 53.7002L20.8184 54.4685C21.0929 55.1184 48.2736 120.285 49.3485 189.701L51.9979 189.67Z" fill="#6C63FF"/>
<path d="M3.5081 87.1117L2.69263 89.2666L35.4129 98.3096L36.2283 96.1546L3.5081 87.1117Z" fill="#6C63FF"/>
<path d="M65.0577 84.6843L38.0984 102.931L39.7437 104.706L66.703 86.4597L65.0577 84.6843Z" fill="#6C63FF"/>
<path d="M134.952 142.49C154.993 142.49 171.239 114.161 171.239 79.2169C171.239 44.2723 154.993 15.9441 134.952 15.9441C114.912 15.9441 98.666 44.2723 98.666 79.2169C98.666 114.161 114.912 142.49 134.952 142.49Z" fill="#3F3D56"/>
<path d="M131.602 182.784C146.135 108.268 131.748 34.0206 131.601 33.2799L128.774 33.6891C128.92 34.4262 143.224 108.283 128.773 182.382L131.602 182.784Z" fill="#6C63FF"/>
<path d="M103.006 65.6113L101.653 67.7723L134.466 82.7712L135.818 80.6102L103.006 65.6113Z" fill="#6C63FF"/>
<path d="M169.097 73.1247L136.288 88.1321L137.641 90.2928L170.45 75.2854L169.097 73.1247Z" fill="#6C63FF"/>
<path d="M292.57 122.137C279.257 115.749 265.347 110.314 250.984 105.888C171.564 81.3289 92.8115 90.7941 61.9861 125.942C85.9753 82.8833 171.574 69.344 257.954 96.0548C268.008 99.1609 277.847 102.753 287.423 106.813C289.51 111.825 291.229 116.943 292.57 122.137Z" fill="#E6E6E6"/>
<path d="M185.309 52.8473L190.722 49.1476C186.517 48.7512 184.789 50.711 184.082 52.2622C180.797 51.0965 177.221 52.6242 177.221 52.6242L188.051 55.9841C187.504 54.737 186.553 53.6489 185.309 52.8473Z" fill="#3F3D56"/>
</g>
<defs>
<clipPath id="clip0">
<rect width="302" height="279" fill="white"/>
</clipPath>
</defs>
</svg>
