<svg width="325" height="338" viewBox="0 0 325 338" fill="none" xmlns="http://www.w3.org/2000/svg">
<g clip-path="url(#clip0)">
<path d="M54.6953 256.726C54.6953 256.726 55.8383 232.831 79.2703 235.608L54.6953 256.726Z" fill="#E6E6E6"/>
<path d="M54.4201 337.698C54.3908 337.448 51.6251 312.548 62.8236 299.37C66.9565 294.507 72.4945 291.783 79.2834 291.276L79.3581 292.214C72.8421 292.702 67.5306 295.31 63.5717 299.968C52.6352 312.835 55.3536 337.345 55.382 337.591L54.4201 337.698Z" fill="#E6E6E6"/>
<path d="M54.4479 232.294H53.4731V336.985H54.4479V232.294Z" fill="#E6E6E6"/>
<path d="M54.6952 232.831C59.1142 232.831 62.6964 229.349 62.6964 225.054C62.6964 220.759 59.1142 217.277 54.6952 217.277C50.2763 217.277 46.6941 220.759 46.6941 225.054C46.6941 229.349 50.2763 232.831 54.6952 232.831Z" fill="#6C63FF"/>
<path d="M79.3207 299.473C83.7116 299.473 87.2712 296.013 87.2712 291.745C87.2712 287.477 83.7116 284.017 79.3207 284.017C74.9297 284.017 71.3701 287.477 71.3701 291.745C71.3701 296.013 74.9297 299.473 79.3207 299.473Z" fill="#E6E6E6"/>
<path d="M325 85.452V85.9636C324.988 87.2483 324.95 88.5271 324.886 89.8002C323.746 111.587 314.077 132.125 297.859 147.206C281.642 162.286 260.104 170.767 237.661 170.909C215.218 171.052 193.569 162.846 177.15 147.973C160.731 133.1 150.785 112.687 149.352 90.9163C149.233 89.1084 149.173 87.287 149.173 85.452C149.141 67.7534 154.792 50.4864 165.338 36.0584C166.181 34.8958 167.058 33.7545 167.97 32.6345C168.597 31.8556 169.243 31.0941 169.895 30.3384C184.736 13.2494 205.876 2.49488 228.781 0.382227C251.685 -1.73043 274.53 4.96706 292.412 19.0378C293.471 19.869 294.511 20.7294 295.528 21.6071C296.341 22.3105 297.141 23.0294 297.926 23.7638C313.395 38.1461 322.916 57.5322 324.695 78.2671C324.898 80.6388 325 83.0338 325 85.452Z" fill="#6C63FF"/>
<path d="M167.969 32.6345C168.013 32.6521 168.053 32.6756 168.089 32.7042C168.562 33.0821 167.97 33.8087 168.041 34.4075C168.125 35.1748 169.178 35.3434 169.973 35.4189C170.768 35.5003 171.773 36.1223 171.396 36.8083C169.399 37.4768 167.377 36.8199 165.338 36.0584C154.792 50.4864 149.141 67.7534 149.173 85.452C149.173 87.2889 149.233 89.1103 149.352 90.9163C149.519 91.0349 149.702 91.1307 149.896 91.2011C150.494 91.422 151.188 91.3813 151.738 91.6952C152.175 91.9452 152.468 92.387 152.905 92.6195C154.155 93.2822 155.889 92.0091 157.055 92.7997C157.356 93.0666 157.642 93.3499 157.91 93.6484C158.987 94.5552 160.757 93.9449 162.001 94.625C162.802 95.061 163.215 95.9329 163.646 96.7235C164.716 98.6999 166.45 100.642 168.741 100.798C169.463 100.766 170.187 100.79 170.906 100.868C171.612 101.025 172.305 101.624 172.192 102.316C171.994 103.507 172.598 104.809 172.437 106.001C172.144 108.181 168.968 109.134 168.699 111.314C168.698 111.794 168.67 112.273 168.615 112.75C168.472 113.32 168.029 113.785 167.874 114.355C167.575 115.43 168.37 116.505 169.237 117.226C170.111 117.953 171.151 118.581 171.63 119.592C172.132 120.668 171.887 121.917 172.048 123.086C172.407 125.638 174.674 127.527 177.006 128.748C177.753 129.051 178.417 129.521 178.944 130.12C179.542 130.962 179.482 132.073 179.685 133.078C180.176 135.537 182.305 137.566 182.365 140.072C182.406 141.856 181.39 143.472 180.78 145.152C180.152 146.913 179.966 148.794 180.236 150.64C183.646 153.451 187.27 156.006 191.078 158.284C191.285 157.986 191.437 157.656 191.527 157.307C191.599 156.922 191.549 156.524 191.384 156.167C191.218 155.81 190.945 155.51 190.6 155.308C191.243 155.072 191.827 154.707 192.316 154.238C192.556 153.998 192.715 153.692 192.771 153.361C192.826 153.031 192.776 152.691 192.627 152.389C193.68 152.517 194.93 152.581 195.623 151.796C196.18 151.169 196.144 150.227 195.922 149.431C195.701 148.628 195.33 147.855 195.324 147.024C197.763 147.139 200.207 147.06 202.633 146.786C202.282 145.636 201.484 144.664 200.408 144.077C201.508 143.896 202.507 142.618 202.854 141.589C203.154 140.539 203.17 139.432 202.902 138.374C202.819 138.102 202.806 137.815 202.866 137.537C203.043 137.168 203.354 136.876 203.739 136.717C205.557 135.7 207.375 134.685 209.193 133.671C209.518 133.512 209.813 133.302 210.066 133.049C210.635 132.392 210.551 131.41 210.258 130.602C209.965 129.794 209.498 129.032 209.385 128.184C209.05 125.643 211.849 123.818 212.794 121.423C213.115 120.467 213.288 119.47 213.308 118.464C213.386 117.383 213.392 116.133 212.542 115.442C211.723 114.773 210.449 114.924 209.594 114.302C208.81 113.733 208.541 112.634 207.686 112.175C206.909 111.756 205.94 112.023 205.073 111.826C203.554 111.483 202.597 109.78 201.042 109.623C200.169 109.53 199.176 109.948 198.458 109.454C197.824 109.012 197.8 108.135 197.681 107.39C197.468 106.232 196.896 105.164 196.041 104.33C195.185 103.497 194.088 102.938 192.896 102.728C191.993 102.589 191.012 102.641 190.241 102.159C189.463 101.67 189.111 100.758 188.495 100.078C187.514 98.9906 185.959 98.6011 184.506 98.2698C182.532 97.8222 180.56 97.3726 178.591 96.9212C177.544 96.677 176.193 96.5491 175.625 97.4443C175.456 97.7848 175.34 98.1469 175.278 98.5197C175.064 99.1906 174.638 99.7788 174.06 100.201C173.483 100.622 172.783 100.856 172.06 100.868C171.566 100.047 170.764 99.4436 169.823 99.1824C169.209 99.0821 168.601 98.9423 168.005 98.7639C167.694 98.6157 167.417 98.4074 167.192 98.1516C166.966 97.8959 166.797 97.5981 166.694 97.2765C166.591 96.9549 166.557 96.6163 166.593 96.2813C166.629 95.9463 166.735 95.6221 166.905 95.3284C167.244 94.7384 167.375 94.0566 167.276 93.3876C167.178 92.7186 166.856 92.0995 166.361 91.6255C165.356 90.7477 163.903 90.5326 162.551 90.6198C162.198 89.8699 162.79 89.027 163.424 88.4806C164.064 87.94 164.836 87.4052 164.973 86.5913C165.195 85.3125 163.514 84.3417 162.24 84.7195C160.966 85.1032 160.153 86.3065 159.615 87.4924C159.354 88.1921 158.998 88.8548 158.556 89.463C158.33 89.7639 158.023 89.998 157.668 90.1396C157.313 90.2812 156.925 90.3247 156.547 90.2652C155.494 90.0036 155.093 88.7887 154.86 87.7656C154.486 86.3981 154.297 84.9892 154.298 83.5744C154.307 82.1455 154.891 80.7769 155.925 79.761C157.665 78.2031 160.344 78.3542 162.695 78.6042C162.443 78.2778 162.322 77.8734 162.355 77.4668C162.388 77.0601 162.573 76.6791 162.874 76.3952C163.189 76.1237 163.567 75.931 163.975 75.8338C164.384 75.7365 164.81 75.7377 165.218 75.8372C165.927 75.9798 166.565 76.3505 167.031 76.8893C167.7 77.6799 167.892 78.7553 168.394 79.6505C168.902 80.5515 170.039 81.3189 170.966 80.8364C171.773 80.4179 171.899 79.3366 171.701 78.4705C171.498 77.6102 171.073 76.7673 171.145 75.8837C171.283 74.2037 173.083 73.1864 174.668 72.4947C176.253 71.8029 178.065 70.867 178.316 69.1929C178.327 68.8673 178.392 68.5455 178.507 68.2395C178.683 67.9664 178.928 67.7421 179.219 67.5885C183.842 64.618 188.548 61.6068 193.835 59.985C194.11 59.8978 194.14 59.9908 194.421 59.9268C194.816 59.7059 194.553 59.0956 194.176 58.8514C193.799 58.6073 193.297 58.4155 193.201 57.9853C193.136 57.6714 193.327 57.3575 193.375 57.0378C193.387 56.8446 193.351 56.6515 193.269 56.4752C193.187 56.299 193.061 56.145 192.904 56.0268C192.746 55.9086 192.561 55.8298 192.365 55.7973C192.168 55.7648 191.967 55.7795 191.778 55.8403C191.353 55.2938 192.191 54.6602 192.872 54.4742C194.914 53.9306 197.009 53.5994 199.122 53.486C199.366 53.4468 199.616 53.4877 199.834 53.6022C199.989 53.748 200.081 53.946 200.091 54.1557C200.101 54.3654 200.028 54.5709 199.888 54.73C199.6 55.0406 199.281 55.3229 198.937 55.5729C198.593 55.8968 198.348 56.3061 198.228 56.7561C198.108 57.2061 198.117 57.6795 198.255 58.1248C199.361 58.6712 200.557 59.2351 201.783 59.0433C203.003 58.8514 204.086 57.5144 203.512 56.4506C202.979 55.4566 201.371 55.2299 201.096 54.1428C200.773 52.8698 202.627 51.7362 202.208 50.4922C202.029 49.9458 201.466 49.6203 201.036 49.2308C200.529 48.7458 200.184 48.1237 200.047 47.4456C199.909 46.7674 199.985 46.0647 200.264 45.4291C199.564 45.548 198.845 45.5024 198.167 45.2961C197.488 45.0898 196.871 44.7288 196.365 44.2432C195.432 43.3305 194.69 41.8831 193.363 41.9296C192.149 41.9645 191.102 43.3422 189.966 42.9236C189.685 42.819 189.392 42.6097 189.123 42.7318C189.034 42.7873 188.959 42.8616 188.904 42.9492C188.849 43.0368 188.816 43.1354 188.806 43.2375C188.519 44.5803 189.015 46.1092 188.261 47.2718C187.442 48.5332 185.546 48.7076 184.553 49.847C184.015 50.4632 183.806 51.2944 183.31 51.9455C182.813 52.5966 181.767 53.0151 181.168 52.4454C181.461 51.8618 181.542 51.1988 181.396 50.5651C181.25 49.9314 180.888 49.3646 180.367 48.9576C179.816 48.6062 179.221 48.3248 178.597 48.1205C177.899 47.8344 177.236 47.4757 176.617 47.0509C176.309 46.8685 176.059 46.607 175.894 46.2952C175.763 45.9032 175.78 45.4788 175.942 45.0977C176.244 44.2582 176.777 43.5147 177.482 42.9473C178.187 42.3799 179.037 42.01 179.942 41.8773C180.732 41.7727 181.653 41.8075 182.179 41.2204C182.454 40.9123 182.598 40.4415 183.004 40.3194C183.261 40.2674 183.527 40.298 183.764 40.4066C184.751 40.7438 185.732 41.0809 186.718 41.4181C187.047 41.5648 187.411 41.623 187.771 41.5867C187.949 41.5643 188.112 41.4767 188.227 41.3418C188.341 41.2068 188.399 41.0346 188.387 40.86C188.291 40.3834 187.538 40.1566 187.609 39.6742C187.644 39.5165 187.73 39.3739 187.855 39.2672C188.921 38.1645 190.226 37.3044 191.674 36.7487C193.123 36.193 194.679 35.9553 196.233 36.0526C196.604 36.6514 196.018 37.3547 195.522 37.8605C195.031 38.372 194.637 39.2789 195.235 39.6683C195.476 39.7913 195.746 39.8514 196.018 39.8427C196.745 39.9376 197.452 40.1456 198.111 40.4589C199.134 40.8891 200.139 41.3657 201.12 41.8773C200.975 41.2541 201 40.605 201.191 39.9939C201.299 39.6939 201.518 39.4437 201.806 39.2922C202.093 39.1407 202.429 39.0986 202.746 39.1742C203.332 39.3951 203.631 40.1508 204.259 40.2206C205.091 40.3136 205.42 39.1161 205.073 38.372C204.726 37.6279 204.032 37.0118 203.978 36.1921C203.936 35.6457 204.152 34.9656 203.703 34.6342C203.544 34.5315 203.361 34.4677 203.171 34.4482C199.415 33.7797 195.657 33.1093 191.898 32.4369C191.228 32.3148 190.265 32.4078 190.235 33.0647C190.217 33.4367 190.558 33.803 190.408 34.1401C190.247 34.5005 189.721 34.4715 189.338 34.5993C189.05 34.7262 188.813 34.9405 188.662 35.2101C188.511 35.4796 188.454 35.7897 188.501 36.0933C188.603 36.6978 188.844 37.272 189.206 37.7733C188.471 37.4768 187.364 37.4245 186.629 37.1222C186.522 36.2943 186.305 35.4834 185.983 34.7098C185.964 34.5867 185.918 34.469 185.848 34.365C185.778 34.261 185.685 34.1732 185.576 34.1078C185.467 34.0424 185.345 34.001 185.218 33.9865C185.091 33.972 184.962 33.9847 184.841 34.0239C183.872 34.1692 182.903 34.3087 181.934 34.454C181.691 34.4652 181.458 34.553 181.27 34.704C180.893 35.0935 181.264 35.7155 181.252 36.2503C181.217 36.5493 181.087 36.8303 180.88 37.0543C180.674 37.2782 180.4 37.434 180.098 37.5001C179.489 37.6202 178.861 37.6123 178.256 37.4768C176.898 37.2734 175.547 37.0699 174.189 36.8664C175.388 36.4953 176.453 35.802 177.263 34.8667C177.801 34.2506 178.089 33.0996 177.311 32.8089C177.081 32.7476 176.842 32.7299 176.605 32.7566C174.763 32.7682 173.31 31.2743 171.588 30.6407C171.046 30.4443 170.473 30.342 169.895 30.3384L167.969 32.6345Z" fill="#3F3D56"/>
<path d="M324.886 89.8002C324.675 90.0754 324.398 90.2961 324.079 90.4431C323.76 90.59 323.409 90.6587 323.056 90.6431C321.184 90.4861 320.395 87.8644 318.541 87.568C318.377 87.5271 318.203 87.5436 318.051 87.6145C317.776 87.7598 317.728 88.1202 317.71 88.4225C317.632 89.9223 317.566 91.4801 318.17 92.8637C319.049 94.8866 321.328 96.584 320.849 98.729C318.278 97.5722 316.938 94.7645 316.334 92.0731C315.724 89.3816 315.628 86.5565 314.54 84.0104C313.709 85.0393 311.974 84.1906 311.221 83.1094C310.503 82.0863 310.061 80.9004 309.367 79.8599C308.673 78.8251 307.609 77.895 306.341 77.8369C305.007 77.7788 303.847 78.6682 302.83 79.5111C301.946 80.1461 301.203 80.949 300.647 81.8712C299.936 83.2663 300.121 84.9056 300.085 86.4577C300.049 88.1319 299.684 89.9048 298.506 91.1372C297.328 92.3638 295.157 92.7939 293.859 91.6836C293.232 91.0478 292.785 90.2647 292.562 89.4107C291.151 85.4141 289.977 81.3422 289.045 77.2149C288.83 78.1567 287.975 79.3716 287.161 78.8194C286.979 78.669 286.833 78.4827 286.731 78.2729C285.212 75.7791 282.407 74.2793 279.566 73.3783C276.731 72.4831 273.747 72.0646 270.942 71.0763C269.369 70.5212 267.866 69.7937 266.463 68.9081C266.106 69.4186 265.898 70.0131 265.86 70.629C265.822 71.2449 265.956 71.8594 266.247 72.4075C266.563 72.9439 267.051 73.364 267.637 73.6026C268.224 73.8413 268.874 73.885 269.489 73.7271C270.111 73.5295 270.637 73.1109 271.253 72.9016C271.869 72.6982 272.7 72.797 272.969 73.3783C273.233 73.9306 272.838 74.5991 273.035 75.1804C273.328 76.0582 274.698 76.1279 275.176 76.9301C275.317 77.2478 275.349 77.6008 275.269 77.9377C275.188 78.2745 274.998 78.5773 274.728 78.8019C274.177 79.2381 273.57 79.6016 272.922 79.8831C270.912 80.9702 269.483 82.8246 267.725 84.2662C265.966 85.7136 263.484 86.7658 261.391 85.8415C261.888 83.3826 258.879 81.5806 258.323 79.1332C258.138 78.3252 258.233 77.4707 257.976 76.6859C257.6 75.5466 256.559 74.7676 255.71 73.9073C254.678 72.8511 253.874 71.605 253.345 70.2423C252.816 68.8796 252.573 67.4279 252.63 65.9725C252.678 64.961 252.869 63.9321 252.63 62.9439C252.396 61.9615 251.553 61.0081 250.513 61.0488C248.138 61.1534 245.142 61.3278 243.898 59.3572C243.45 58.6538 243.258 57.6249 243.904 57.0843C244.359 56.7065 245.028 56.7414 245.621 56.7995C247.409 56.9681 249.191 57.1425 250.979 57.311C252.229 57.4273 253.581 57.5261 254.657 56.8925C255.734 56.2589 256.2 54.5673 255.201 53.8174C254.478 53.271 253.174 53.3 252.959 52.4339C252.785 51.7072 253.611 50.8876 253.162 50.2772C252.845 49.8471 252.127 49.9633 251.691 50.2888C251.31 50.6733 250.896 51.0253 250.453 51.341C249.598 51.7712 248.581 51.3585 247.66 51.0794C246.739 50.8004 245.507 50.7771 245.064 51.6084C244.562 52.5327 245.501 53.7534 245.011 54.6835C244.353 55.9101 242.14 55.2125 241.219 56.2705C240.166 57.4796 241.937 59.2933 241.584 60.8396C241.129 61.0586 240.624 61.1592 240.118 61.1317C239.612 61.1042 239.121 60.9495 238.695 60.6826C238.277 60.4059 237.943 60.0241 237.73 59.5777C237.518 59.1314 237.434 58.6373 237.487 58.1481C237.571 57.4505 237.948 56.7355 237.696 56.0787C237.425 55.5714 236.978 55.1738 236.434 54.9567C234.7 54.0208 232.966 53.0888 231.231 52.1607C230.747 53.0326 231.357 54.108 232.122 54.7649C232.882 55.416 233.839 55.9101 234.341 56.7704C234.659 57.3667 234.731 58.0585 234.542 58.7045C234.353 59.3506 233.918 59.9022 233.325 60.2466C233.249 60.2968 233.164 60.3306 233.074 60.3457C232.984 60.3607 232.892 60.3567 232.804 60.3338C232.721 60.2865 232.649 60.2236 232.591 60.1487C232.534 60.0738 232.492 59.9885 232.469 59.8978C231.554 57.6133 230.173 55.3636 227.972 54.172C225.765 52.9745 222.601 53.2244 221.154 55.2299C220.813 55.7066 220.58 56.253 220.281 56.7588C218.696 59.4386 215.287 60.7059 212.106 60.6245C211.794 60.6439 211.484 60.5731 211.215 60.421C210.7 60.078 210.724 59.3456 210.802 58.741C210.916 57.8865 211.023 57.0378 211.137 56.1833C211.14 55.6615 211.347 55.1605 211.717 54.7823C212.309 54.3289 213.158 54.6138 213.912 54.6021C214.48 54.5775 215.028 54.3828 215.478 54.0447C215.929 53.7066 216.261 53.2414 216.43 52.7129C216.581 52.1795 216.58 51.6161 216.426 51.0833C216.272 50.5506 215.971 50.0688 215.556 49.6901C215.216 49.3762 214.755 48.9809 214.934 48.5566C215.007 48.4397 215.106 48.3396 215.222 48.2633C215.339 48.187 215.471 48.1363 215.61 48.1148C216.956 47.7369 218.385 47.6381 219.707 47.1847C221.035 46.7371 222.32 45.8186 222.637 44.4874C222.733 44.0805 222.775 43.5864 223.152 43.3829C223.342 43.3087 223.545 43.2693 223.75 43.2667C224.469 43.1665 225.123 42.8086 225.585 42.2633C226.046 41.7179 226.281 41.0246 226.244 40.3195C226.878 39.8893 227.769 40.209 228.385 40.6682C228.995 41.1275 229.539 41.732 230.286 41.9297C231.68 42.3017 233.026 41.0984 234.473 41.0926C235.083 41.0926 235.711 41.3019 236.279 41.0984C236.859 40.895 237.206 40.3369 237.648 39.9242C238.097 39.5056 238.874 39.2557 239.287 39.7033C239.167 38.8604 239.054 38.0233 238.934 37.1862C239.639 37.3587 240.373 37.3826 241.088 37.2562C241.803 37.1299 242.482 36.8563 243.079 36.4538C241.572 35.9597 240.071 35.4656 238.564 34.9714C238.405 34.9335 238.259 34.8576 238.139 34.7505C237.81 34.4076 238.139 33.8728 238.402 33.4833C239.042 32.5474 239.15 31.0069 238.097 30.5419C237.379 30.2222 236.56 30.6058 235.872 30.9779C234.772 31.5708 233.671 32.1695 232.571 32.7625C232.469 33.3729 233.235 33.7216 233.707 34.1285C233.995 34.3768 234.199 34.7039 234.292 35.0669C234.385 35.4299 234.363 35.8118 234.228 36.1622C234.093 36.5127 233.853 36.8153 233.538 37.0302C233.223 37.2452 232.848 37.3624 232.463 37.3664C232.68 37.6414 232.831 37.9601 232.904 38.2991C232.978 38.6381 232.972 38.9888 232.888 39.3254C232.152 39.3777 231.411 39.4301 230.669 39.4824C230.546 39.5062 230.419 39.5062 230.296 39.4823C230.173 39.4583 230.056 39.4109 229.952 39.3429C229.712 39.1394 229.748 38.779 229.688 38.4767C229.59 38.1154 229.382 37.7911 229.092 37.5455C228.802 37.3 228.443 37.1445 228.062 37.099C227.3 37.0157 226.528 37.085 225.795 37.3025C225.476 37.4117 225.127 37.4034 224.814 37.2792C224.637 37.165 224.502 36.9977 224.432 36.8026C224.301 36.4039 224.279 35.9794 224.367 35.5701C224.455 35.1607 224.65 34.7803 224.934 34.4657C225.508 33.8458 226.141 33.2795 226.824 32.7741C228.371 31.4573 229.509 29.7457 230.107 27.833C231.327 27.3331 232.589 26.6588 233.815 26.1589C234.801 25.7149 235.833 25.3776 236.895 25.1532C237.894 25.0049 238.906 24.9581 239.915 25.0137C241.291 25.0369 242.672 25.0602 244.048 25.0892C245.276 25.0391 246.502 25.2106 247.666 25.595C248.796 26.0484 249.795 27.0308 249.873 28.2167C249.896 28.3518 249.884 28.4906 249.837 28.6198C249.79 28.749 249.709 28.8643 249.604 28.9549C249.445 29.0403 249.264 29.0806 249.083 29.0712C247.941 29.1061 247.457 29.3851 246.314 29.4258C247.038 30.1757 247.851 30.9663 248.904 31.1C250.758 31.3325 252.091 29.4665 252.947 27.8446C252.977 28.2575 253.173 28.6423 253.491 28.9171C253.809 29.1919 254.226 29.3348 254.651 29.3153C255.109 29.2388 255.547 29.0727 255.937 28.8271C259.615 26.873 263.736 25.8383 267.928 25.8159C267.887 25.5074 267.965 25.1951 268.147 24.9395C268.33 24.6838 268.603 24.5031 268.915 24.4324C269.77 24.2696 270.535 24.9846 270.948 25.7287C271.355 26.4728 271.612 27.3331 272.27 27.8911C272.922 28.4492 274.183 28.4201 274.441 27.6179C274.692 26.8448 273.861 26.1821 273.173 25.7229C272.479 25.2695 271.755 24.4266 272.222 23.7522C275.738 22.9907 279.285 22.235 282.891 22.0839C283.504 22.1019 284.114 21.9991 284.685 21.7816C284.968 21.6652 285.203 21.4614 285.355 21.2018C285.506 20.9422 285.565 20.6413 285.523 20.3458C284.736 20.5243 283.912 20.4715 283.156 20.1941C282.4 19.9167 281.746 19.4273 281.276 18.7879C284.978 18.4914 288.854 18.2298 292.412 19.0378L295.528 21.6072C294.936 22.2059 294.146 22.7698 294.577 23.3686C294.719 23.5061 294.891 23.6105 295.081 23.6739C295.271 23.7373 295.472 23.7581 295.672 23.7348C296.425 23.7464 297.179 23.7638 297.926 23.7638C313.395 38.1461 322.916 57.5322 324.695 78.2672C323.439 78.2206 322.285 79.7669 322.446 81.1156C322.638 82.6793 323.798 83.9349 324.629 85.2835C324.767 85.5027 324.891 85.7299 325 85.9636L324.886 89.8002Z" fill="#3F3D56"/>
<path d="M208.652 169.561C216.996 169.561 223.76 162.987 223.76 154.876C223.76 146.766 216.996 140.192 208.652 140.192C200.308 140.192 193.544 146.766 193.544 154.876C193.544 162.987 200.308 169.561 208.652 169.561Z" fill="#2F2E41"/>
<path d="M201.44 162.295C201.44 162.295 196.519 172.887 195.113 173.228C193.707 173.57 206.712 179.72 206.712 179.72C206.712 179.72 209.173 166.737 210.227 166.054C211.282 165.37 201.44 162.295 201.44 162.295Z" fill="#FFB9B9"/>
<path d="M172.266 249.075L163.127 274.016L172.969 277.774L189.841 245.317L172.266 249.075Z" fill="#FFB9B9"/>
<path d="M204.252 249.759C204.252 249.759 222.53 274.699 223.584 275.041C224.639 275.382 232.02 269.233 232.02 269.233C232.02 269.233 222.881 247.709 220.069 246.684C217.258 245.659 204.252 249.759 204.252 249.759Z" fill="#FFB9B9"/>
<path d="M161.721 269.574L147.31 306.131C147.31 306.131 148.364 308.181 147.31 308.523C146.255 308.865 143.795 314.331 143.795 314.673C143.795 315.014 141.335 315.356 141.335 316.381C141.335 317.406 139.226 325.606 139.226 325.606C139.226 325.606 143.092 333.805 145.553 331.414C148.013 329.022 149.067 324.239 149.067 324.239L152.582 315.356C152.582 315.356 152.231 310.573 154.691 309.89C157.152 309.206 158.558 300.665 158.558 300.665C158.558 300.665 162.424 296.907 163.127 295.882C163.83 294.857 176.133 276.749 175.078 276.408C174.024 276.066 161.721 269.574 161.721 269.574Z" fill="#2F2E41"/>
<path d="M221.475 274.358L232.02 267.525C232.02 267.525 250.298 299.982 250.298 300.665C250.298 301.348 249.595 303.398 250.298 304.082C251.001 304.765 256.976 315.698 260.843 316.723C264.709 317.748 265.412 321.848 262.249 322.531C259.085 323.214 254.867 324.922 253.813 322.531C253.196 321.124 252.492 319.755 251.704 318.431C251.704 318.431 248.189 319.456 247.837 318.773C247.432 317.766 247.08 316.74 246.783 315.698C246.783 315.698 243.971 310.915 243.971 309.206C243.971 307.498 242.214 307.156 242.214 307.156C242.214 307.156 238.347 298.273 235.887 296.907C233.426 295.54 231.317 288.707 231.317 288.707L221.475 274.358Z" fill="#2F2E41"/>
<path d="M208.822 170.154C214.451 170.154 219.015 165.718 219.015 160.246C219.015 154.774 214.451 150.338 208.822 150.338C203.192 150.338 198.628 154.774 198.628 160.246C198.628 165.718 203.192 170.154 208.822 170.154Z" fill="#FFB9B9"/>
<path d="M178.593 220.376C178.593 220.376 163.507 259.332 165.615 259.332C167.724 259.332 226.069 260.566 227.827 257.833C229.584 255.099 212.688 227.893 211.985 227.551C211.282 227.209 178.593 220.376 178.593 220.376Z" fill="#2F2E41"/>
<path d="M163.479 139.063L152.934 123.347C152.934 123.347 155.541 106.861 152.026 109.936C148.512 113.01 147.399 125.428 147.399 125.428L159.612 143.505L163.479 139.063Z" fill="#FFB9B9"/>
<path d="M259.085 167.762L268.576 167.079C268.576 167.079 279.824 155.462 280.527 159.221C281.23 162.979 271.388 171.178 271.388 171.178L258.382 172.545L259.085 167.762Z" fill="#FFB9B9"/>
<path d="M189.841 171.178V167.762C189.841 167.762 180.702 161.954 181.053 160.929C181.405 159.904 180.35 159.221 180.35 159.221C180.35 159.221 179.296 157.854 179.296 157.512C179.296 157.171 177.89 156.829 177.89 156.829L169.102 146.921C169.102 146.921 164.182 137.355 163.127 137.696C162.073 138.038 156.449 140.088 157.152 141.455C157.855 142.821 177.538 172.203 177.538 172.203C177.538 172.203 178.593 178.695 180.35 178.695C182.108 178.695 189.841 171.178 189.841 171.178Z" fill="#3F3D56"/>
<path d="M213.391 175.278C213.391 175.278 221.124 174.937 221.475 175.278C221.827 175.62 226.748 175.278 226.748 175.278C226.748 175.278 240.105 172.203 241.159 171.178C242.213 170.153 259.788 165.712 260.491 167.762C261.194 169.812 262.952 173.912 261.194 174.595C259.437 175.278 211.985 186.894 211.985 186.894L213.391 175.278Z" fill="#3F3D56"/>
<path d="M203.367 145.497C206.82 145.497 209.619 142.777 209.619 139.421C209.619 136.065 206.82 133.344 203.367 133.344C199.914 133.344 197.115 136.065 197.115 139.421C197.115 142.777 199.914 145.497 203.367 145.497Z" fill="#2F2E41"/>
<path d="M195.032 136.129C195.032 134.627 195.604 133.178 196.638 132.062C197.672 130.946 199.095 130.242 200.632 130.086C200.416 130.064 200.198 130.053 199.981 130.053C198.323 130.053 196.733 130.693 195.56 131.833C194.388 132.972 193.729 134.518 193.729 136.129C193.729 137.741 194.388 139.286 195.56 140.426C196.733 141.566 198.323 142.206 199.981 142.206C200.198 142.206 200.416 142.195 200.632 142.173C199.095 142.016 197.672 141.312 196.638 140.196C195.604 139.08 195.032 137.631 195.032 136.129Z" fill="#2F2E41"/>
<path d="M210.41 157.839C216.164 157.839 220.829 155.119 220.829 151.763C220.829 148.407 216.164 145.686 210.41 145.686C204.655 145.686 199.99 148.407 199.99 151.763C199.99 155.119 204.655 157.839 210.41 157.839Z" fill="#2F2E41"/>
<path d="M198.452 167.591C198.452 167.591 195.289 169.983 194.586 170.324C193.883 170.666 189.665 167.249 188.962 167.249C188.259 167.249 179.12 177.499 179.12 177.499C179.12 177.499 180.819 179.4 179.12 189.115C178.483 192.758 177.22 208.335 177.22 210.385C177.22 212.435 170.333 217.472 176.66 221.914C182.987 226.355 213.215 231.138 213.567 228.405C213.918 225.672 210.052 218.497 211.809 215.081C213.567 211.664 213.567 199.023 213.567 199.023L215.676 185.699L217.433 175.107C217.433 175.107 209.173 172.887 208.47 172.887C207.767 172.887 204.604 177.67 198.452 167.591Z" fill="#3F3D56"/>
<path d="M323.608 336.939H0V338H323.608V336.939Z" fill="#3F3D56"/>
</g>
<defs>
<clipPath id="clip0">
<rect width="325" height="338" fill="white"/>
</clipPath>
</defs>
</svg>
